<svg width="205" height="250" viewBox="0 0 205 250" fill="none" xmlns="http://www.w3.org/2000/svg">
<rect x="27" y="2.62012" width="30" height="163" fill="black"/>
<rect x="148" y="50.6201" width="30" height="115" fill="black"/>
<rect x="97" y="72.6201" width="30" height="30" fill="black"/>
<rect x="97" y="50.6201" width="81" height="30" fill="black"/>
<rect x="178.088" y="135.636" width="30" height="151.088" transform="rotate(89.9247 178.088 135.636)" fill="black"/>
<rect x="87.2134" width="30" height="60.214" transform="rotate(89.7652 87.2134 0)" fill="black"/>
<path d="M12.0682 248.62H1.52273L17.5909 202.075H30.2727L46.3182 248.62H35.7727L24.1136 212.711H23.75L12.0682 248.62ZM11.4091 230.325H36.3182V238.006H11.4091V230.325ZM61.4205 228.438V248.62H51.7386V202.075H61.1477V219.87H61.5568C62.3447 217.81 63.6174 216.196 65.375 215.029C67.1326 213.847 69.3371 213.256 71.9886 213.256C74.4129 213.256 76.5265 213.787 78.3295 214.847C80.1477 215.893 81.5568 217.4 82.5568 219.37C83.572 221.325 84.072 223.666 84.0568 226.393V248.62H74.375V228.12C74.3902 225.969 73.8447 224.294 72.7386 223.097C71.6477 221.9 70.1174 221.302 68.1477 221.302C66.8295 221.302 65.6629 221.582 64.6477 222.143C63.6477 222.703 62.8598 223.522 62.2841 224.597C61.7235 225.658 61.4356 226.938 61.4205 228.438ZM101.631 249.279C99.4034 249.279 97.4186 248.893 95.6761 248.12C93.9337 247.332 92.5549 246.173 91.5398 244.643C90.5398 243.097 90.0398 241.173 90.0398 238.87C90.0398 236.931 90.3958 235.302 91.108 233.984C91.8201 232.666 92.7898 231.605 94.017 230.802C95.2443 229.999 96.6383 229.393 98.1989 228.984C99.7746 228.575 101.426 228.287 103.153 228.12C105.184 227.908 106.82 227.711 108.062 227.529C109.305 227.332 110.206 227.044 110.767 226.666C111.328 226.287 111.608 225.726 111.608 224.984V224.847C111.608 223.408 111.153 222.294 110.244 221.506C109.35 220.719 108.078 220.325 106.426 220.325C104.684 220.325 103.297 220.711 102.267 221.484C101.237 222.241 100.555 223.196 100.222 224.347L91.267 223.62C91.7216 221.499 92.6155 219.666 93.9489 218.12C95.2822 216.56 97.0019 215.363 99.108 214.529C101.229 213.681 103.684 213.256 106.472 213.256C108.411 213.256 110.267 213.484 112.04 213.938C113.828 214.393 115.411 215.097 116.79 216.052C118.184 217.006 119.282 218.234 120.085 219.734C120.888 221.219 121.29 222.999 121.29 225.075V248.62H112.108V243.779H111.835C111.275 244.87 110.525 245.832 109.585 246.666C108.646 247.484 107.517 248.128 106.199 248.597C104.881 249.052 103.358 249.279 101.631 249.279ZM104.403 242.597C105.828 242.597 107.085 242.317 108.176 241.756C109.267 241.181 110.123 240.408 110.744 239.438C111.366 238.469 111.676 237.37 111.676 236.143V232.438C111.373 232.635 110.956 232.817 110.426 232.984C109.911 233.135 109.328 233.279 108.676 233.416C108.025 233.537 107.373 233.65 106.722 233.756C106.07 233.847 105.479 233.931 104.949 234.006C103.813 234.173 102.82 234.438 101.972 234.802C101.123 235.166 100.464 235.658 99.9943 236.279C99.5246 236.885 99.2898 237.643 99.2898 238.552C99.2898 239.87 99.767 240.878 100.722 241.575C101.691 242.256 102.919 242.597 104.403 242.597ZM141.665 249.188C139.013 249.188 136.612 248.506 134.46 247.143C132.324 245.764 130.627 243.741 129.369 241.075C128.127 238.393 127.506 235.105 127.506 231.211C127.506 227.211 128.15 223.885 129.438 221.234C130.725 218.567 132.438 216.575 134.574 215.256C136.725 213.923 139.081 213.256 141.642 213.256C143.597 213.256 145.225 213.59 146.528 214.256C147.847 214.908 148.907 215.726 149.71 216.711C150.528 217.681 151.15 218.635 151.574 219.575H151.869V202.075H161.528V248.62H151.983V243.029H151.574C151.119 243.999 150.475 244.961 149.642 245.916C148.824 246.855 147.756 247.635 146.438 248.256C145.134 248.878 143.544 249.188 141.665 249.188ZM144.733 241.484C146.294 241.484 147.612 241.06 148.688 240.211C149.778 239.347 150.612 238.143 151.188 236.597C151.778 235.052 152.074 233.241 152.074 231.166C152.074 229.09 151.786 227.287 151.21 225.756C150.634 224.226 149.801 223.044 148.71 222.211C147.619 221.378 146.294 220.961 144.733 220.961C143.142 220.961 141.801 221.393 140.71 222.256C139.619 223.12 138.794 224.317 138.233 225.847C137.672 227.378 137.392 229.15 137.392 231.166C137.392 233.196 137.672 234.991 138.233 236.552C138.809 238.097 139.634 239.31 140.71 240.188C141.801 241.052 143.142 241.484 144.733 241.484ZM191.875 233.756V213.711H201.557V248.62H192.261V242.279H191.898C191.11 244.325 189.799 245.969 187.966 247.211C186.148 248.453 183.928 249.075 181.307 249.075C178.973 249.075 176.92 248.544 175.148 247.484C173.375 246.423 171.989 244.916 170.989 242.961C170.004 241.006 169.504 238.666 169.489 235.938V213.711H179.17V234.211C179.186 236.272 179.739 237.9 180.83 239.097C181.92 240.294 183.383 240.893 185.216 240.893C186.383 240.893 187.473 240.628 188.489 240.097C189.504 239.552 190.322 238.749 190.943 237.688C191.58 236.628 191.89 235.317 191.875 233.756Z" fill="black"/>
</svg>
